REM MD5 9756f28f538a84c8edb6f75bf417732d
FILE "Farland Story - Yottsu no Fuuin (Japan) (Demo).bin" BINARY
  TRACK 01 MODE2/2352
    INDEX 01 00:00:00
  TRACK 02 AUDIO
    INDEX 00 27:12:14
    INDEX 01 27:14:14
  TRACK 03 AUDIO
    INDEX 00 28:05:14
    INDEX 01 28:07:14
  TRACK 04 AUDIO
    INDEX 00 28:33:58
    INDEX 01 28:35:58
  TRACK 05 AUDIO
    INDEX 00 29:29:46
    INDEX 01 29:31:46
REM LEADOUT 32:32:46
